P2
64 64
255
0 0 0 0 0 0 0 0 0 0 0 0 0 0 0 0 0 0 0 0 0 0 0 0 0 0 0 0 0 0 0 0 0 0 0 0 0 0 0 0 0 0 0 0 0 0 0 0 0 0 0 0 0 0 0 0 0 0 0 0 0 0 0 0 
0 0 0 0 0 0 0 0 0 0 0 0 0 0 0 0 0 0 0 0 0 0 0 0 0 0 0 0 0 0 0 0 0 0 0 0 0 0 0 0 0 0 0 0 0 0 0 0 0 0 0 0 0 0 0 0 0 0 0 0 0 0 0 0 
0 0 0 0 0 0 0 0 0 0 0 0 0 0 0 0 0 0 0 0 0 0 0 0 0 0 0 0 0 3 7 5 0 0 0 0 0 0 0 0 0 0 0 0 0 0 0 0 0 0 0 0 0 0 0 0 0 0 0 0 0 0 0 0 
0 0 0 0 0 0 0 0 0 0 0 0 0 0 0 0 0 0 0 0 0 0 0 0 0 0 0 0 0 8 11 10 8 2 0 0 0 0 0 0 0 0 0 0 0 0 0 0 0 0 0 0 0 0 0 0 0 0 0 0 0 0 0 0 
0 0 0 0 0 0 0 0 0 0 0 0 0 0 0 0 0 0 0 0 0 0 0 0 0 0 0 0 5 9 14 13 11 8 5 0 0 0 0 0 0 0 0 0 6 4 2 0 0 0 0 0 0 0 0 0 0 0 0 0 0 0 0 0 
0 0 0 0 0 0 0 0 0 0 0 0 0 0 0 0 0 0 0 0 0 0 0 8 14 11 7 6 7 12 16 14 13 11 10 7 0 0 0 0 0 0 10 20 21 19 18 16 13 6 0 0 0 0 0 0 0 0 0 0 0 0 0 0 
0 0 0 0 0 0 0 0 0 0 0 0 0 0 0 0 0 0 0 0 2 12 9 17 21 22 21 18 12 13 19 16 16 16 14 11 8 2 6 5 7 18 26 28 28 28 27 25 23 20 17 14 3 0 0 0 0 0 0 0 0 0 0 0 
0 0 0 0 0 0 0 0 0 0 0 0 0 0 1 6 11 12 13 16 19 18 15 12 16 17 41 40 45 42 45 51 44 41 37 36 22 20 11 6 21 26 37 37 37 36 36 41 43 50 49 40 26 18 15 0 0 0 0 0 0 0 0 0 
0 0 0 0 0 0 0 0 0 0 0 0 0 4 13 17 19 21 22 22 11 10 11 9 14 41 50 49 53 61 61 63 73 71 68 64 46 39 33 29 38 44 48 54 53 52 53 57 72 80 73 62 52 39 22 18 7 0 0 0 0 0 0 0 
0 0 0 0 0 0 0 0 0 0 0 0 0 13 19 22 26 50 50 13 12 11 17 16 36 53 57 57 56 64 78 85 89 92 84 79 74 67 59 54 56 59 63 69 68 64 65 87 93 95 89 79 69 60 49 26 20 15 0 0 0 0 0 0 
0 0 0 0 0 0 0 0 0 0 0 0 5 19 23 29 54 59 54 26 13 12 25 37 48 61 63 62 65 74 85 96 104 102 101 98 91 84 72 67 68 71 74 81 81 81 91 104 106 105 98 90 81 74 65 56 28 23 18 0 0 0 0 0 
0 0 0 0 0 0 0 0 0 0 0 0 13 25 41 52 63 70 60 32 20 16 17 48 57 65 69 68 77 83 94 107 115 113 111 110 110 99 89 77 81 83 86 92 92 101 109 116 118 114 107 99 92 85 78 70 63 44 26 20 0 0 0 0 
0 0 0 0 0 0 0 0 0 0 0 0 17 40 53 61 73 75 66 42 23 13 19 52 62 70 72 80 88 95 101 109 120 123 121 121 118 93 97 84 90 96 101 104 107 113 124 124 126 120 114 109 103 95 88 81 74 66 54 26 19 0 0 0 
0 0 0 0 0 0 0 0 0 0 0 7 20 49 62 69 80 76 45 29 18 15 17 63 67 73 75 86 99 103 108 115 123 132 131 132 125 123 116 103 101 105 112 113 117 123 132 133 129 125 121 117 113 107 98 90 84 76 67 46 25 14 0 0 
0 0 0 0 0 0 0 0 0 0 0 12 22 53 70 77 85 63 41 31 19 16 25 57 70 74 78 89 104 108 114 119 129 141 141 141 132 128 124 117 111 111 119 121 127 138 133 113 102 95 91 90 99 102 108 99 92 84 75 61 43 22 5 0 
0 0 0 0 0 0 0 0 0 0 0 15 23 51 75 79 75 58 39 33 21 19 29 51 72 76 80 89 106 110 116 123 133 148 147 148 142 138 132 128 119 119 126 125 111 96 87 80 75 71 68 67 69 75 79 86 99 91 82 72 56 42 20 0 
0 0 0 0 0 0 0 0 0 0 0 17 25 41 50 71 69 57 43 35 26 21 22 47 73 76 81 88 105 111 117 125 136 152 154 154 153 145 142 132 116 114 104 91 80 72 67 63 60 57 55 54 55 58 59 63 81 88 90 80 69 55 35 16 
0 0 0 0 0 0 0 0 0 0 2 19 26 44 51 63 64 56 44 38 31 20 20 33 70 74 81 88 101 111 118 126 138 156 156 156 154 143 128 120 113 93 78 70 64 59 56 52 50 47 45 44 44 46 49 50 57 77 96 87 78 65 50 20 
0 0 0 0 0 0 0 0 0 0 14 22 28 44 52 54 56 56 43 40 33 22 21 21 63 70 82 90 98 109 118 127 140 157 156 145 129 119 112 106 86 72 63 56 51 48 46 43 41 39 37 37 36 38 40 42 48 56 75 93 84 73 57 34 
0 0 0 0 0 0 0 0 0 3 18 25 29 44 52 51 50 56 46 42 38 28 23 22 35 66 82 94 101 109 117 127 140 153 132 121 112 106 101 80 68 58 51 46 43 41 38 36 34 33 32 30 30 32 34 36 41 47 57 82 89 78 63 45 
0 0 0 0 0 0 1 4 10 16 22 26 30 45 53 49 48 59 53 49 47 42 37 32 31 65 83 97 103 111 118 127 124 126 115 106 98 95 78 65 55 48 42 38 35 33 32 30 29 28 27 26 26 28 29 32 36 42 49 61 92 82 68 51 
0 0 0 0 0 12 15 16 17 22 25 29 32 50 54 49 54 60 60 56 55 54 50 46 44 81 99 103 107 114 120 110 108 115 100 93 89 87 62 53 45 40 35 31 29 28 27 25 24 25 24 23 24 25 27 29 33 38 43 51 79 86 72 56 
0 0 0 0 0 0 22 23 23 25 29 33 42 52 52 49 56 59 61 62 61 60 58 57 67 101 109 111 114 117 104 99 100 106 91 86 83 65 52 44 37 32 28 26 24 24 23 22 22 22 22 21 22 23 25 26 30 35 38 44 58 90 76 60 
0 0 0 0 0 0 0 28 28 30 33 36 48 54 50 48 53 56 60 63 66 66 67 73 82 100 113 116 117 106 96 95 105 101 87 82 71 54 44 37 31 27 24 22 22 21 21 20 21 21 21 21 21 22 23 25 27 31 35 40 50 81 79 64 
0 0 0 0 0 0 0 0 34 35 36 40 51 56 48 47 45 54 57 61 63 71 75 83 89 104 116 119 115 97 92 94 111 104 87 80 60 47 39 33 28 25 22 21 21 20 20 19 19 20 20 20 21 21 22 24 26 30 33 37 45 66 83 68 
0 0 0 0 0 0 0 0 0 39 40 41 52 54 48 46 44 44 50 56 58 65 74 89 95 107 119 122 107 97 96 111 111 106 95 80 55 43 36 30 27 24 22 21 20 20 19 19 19 19 19 19 20 21 21 23 25 29 32 36 43 58 87 71 
0 0 0 0 0 0 0 0 0 43 44 45 50 51 49 47 45 44 42 52 55 61 73 85 93 108 122 118 109 105 110 115 112 109 102 77 53 42 36 32 29 25 24 22 21 21 19 19 19 19 19 20 19 20 21 22 25 27 31 35 41 53 83 74 
0 0 0 0 0 0 0 48 48 48 48 48 48 53 57 49 47 44 42 46 52 59 79 89 99 112 117 109 110 113 118 116 112 110 105 76 54 42 36 33 31 29 25 23 22 21 19 19 19 19 19 20 20 20 22 22 24 27 31 34 39 49 74 75 
0 0 0 0 0 0 0 0 51 51 51 51 51 51 51 52 53 53 45 43 49 56 74 89 100 112 119 103 110 118 116 115 113 107 105 76 56 45 39 35 33 32 27 25 23 21 19 19 19 26 58 32 20 21 22 22 25 27 31 33 38 47 73 76 
0 0 0 0 0 0 0 0 54 54 54 54 54 54 53 54 55 55 56 56 59 67 72 99 106 109 107 100 110 113 113 112 113 108 106 77 59 49 44 39 36 34 28 26 23 21 20 20 19 72 74 66 20 21 23 23 25 28 32 34 39 47 71 75 
0 0 0 0 0 0 0 0 0 57 56 56 56 56 56 56 56 57 57 57 58 75 83 121 124 127 120 113 107 108 109 112 112 114 109 79 67 55 47 42 38 37 29 26 23 21 20 20 65 77 67 72 21 22 23 24 26 29 32 33 39 47 69 74 
0 0 0 0 0 0 0 0 0 59 58 58 58 58 57 57 57 58 58 59 68 83 81 115 132 137 127 115 108 110 108 107 111 115 112 86 70 60 52 45 43 36 31 27 24 23 22 21 53 75 69 74 22 23 24 24 27 30 33 34 39 47 68 73 
0 0 0 0 0 0 0 0 62 61 60 60 59 59 59 59 59 59 76 80 81 88 78 107 133 139 129 118 111 109 110 109 110 107 109 85 72 62 57 47 41 36 40 44 37 30 25 22 50 59 70 71 23 24 25 25 28 31 34 35 41 49 69 71 
0 0 0 0 0 0 0 0 0 63 62 61 61 60 60 70 71 64 76 83 83 86 74 103 132 139 135 121 113 108 106 109 108 105 105 97 71 62 56 47 41 36 32 30 27 25 24 23 29 48 63 38 24 25 26 27 30 33 35 37 43 52 69 67 
0 0 0 0 0 0 0 0 67 65 64 63 62 68 82 82 82 71 76 83 83 82 70 92 128 138 144 124 116 110 116 105 109 110 109 86 72 63 56 48 42 38 35 32 29 27 26 25 24 24 25 26 26 27 28 29 32 35 37 40 45 59 71 60 
0 0 0 0 0 0 0 0 0 68 74 74 71 69 85 85 84 73 73 81 81 80 63 83 114 136 149 127 118 113 108 105 105 105 108 85 71 63 55 49 45 40 37 35 31 30 28 27 26 26 27 27 27 28 30 31 34 38 39 43 49 68 79 52 
0 0 0 0 0 0 0 0 3 90 89 88 79 69 85 85 84 73 70 78 78 75 59 74 105 133 139 133 121 114 109 106 104 103 102 85 70 63 56 51 47 42 39 36 33 31 30 29 28 28 29 30 30 31 32 34 37 41 42 47 55 74 79 36 
0 0 0 0 10 14 16 12 5 95 93 91 81 68 83 83 82 72 63 67 66 72 58 68 101 130 135 140 123 116 110 106 104 102 101 89 74 65 59 54 49 45 41 38 35 33 32 31 31 31 31 32 32 33 34 37 41 44 46 53 61 78 75 33 
0 0 0 5 17 22 22 15 5 19 98 93 83 67 81 80 77 70 64 67 63 63 57 63 88 124 130 135 130 117 110 107 103 101 100 99 77 68 61 56 51 47 44 40 37 35 34 33 32 32 33 34 34 35 37 40 44 47 51 59 78 92 69 32 
0 0 0 5 17 23 23 17 6 18 99 92 83 65 71 79 67 63 63 62 61 55 55 57 73 107 123 128 133 124 111 107 103 100 99 98 81 70 63 58 53 49 45 42 38 36 35 34 33 34 35 36 37 38 40 43 47 50 58 68 83 87 57 31 
0 0 0 5 17 24 23 17 5 17 101 98 81 65 70 67 66 57 62 60 58 52 52 52 64 94 111 121 126 131 118 109 104 100 99 97 96 74 65 60 55 50 47 43 40 38 36 35 35 35 36 37 38 41 44 47 51 56 65 84 97 81 37 31 
0 0 0 4 16 22 22 23 2 10 92 82 75 69 69 67 63 61 58 57 50 49 49 49 48 82 100 111 118 123 128 117 107 101 99 96 95 81 69 62 57 53 49 45 42 40 39 37 36 38 38 39 41 44 47 52 56 63 78 88 93 72 36 29 
0 0 0 3 15 18 16 13 0 8 90 81 68 70 67 63 54 57 55 53 46 46 45 45 45 56 89 99 109 115 121 125 118 106 101 98 95 94 74 66 60 55 51 48 44 43 41 39 39 40 41 42 44 47 51 56 61 74 89 100 85 59 34 27 
0 0 0 0 8 8 8 8 1 7 89 78 66 67 62 59 51 53 51 49 43 42 42 41 41 41 66 86 98 105 112 117 121 125 106 101 97 95 91 73 65 59 55 51 47 46 44 42 42 43 44 45 47 51 56 62 73 87 102 91 75 37 30 22 
0 0 0 0 8 8 8 1 6 7 87 72 63 61 58 51 49 49 43 41 38 37 37 37 37 36 37 67 84 94 102 108 113 117 121 109 101 97 94 93 74 66 60 56 52 50 48 46 46 47 48 49 52 57 63 73 86 102 92 78 55 29 22 9 
0 0 0 2 7 7 7 0 6 6 82 63 60 57 54 44 41 39 37 35 34 33 32 32 32 32 32 33 65 81 91 99 104 109 113 117 116 102 97 94 92 75 68 62 58 55 53 51 51 52 54 56 60 66 79 85 100 91 79 60 28 21 8 0 
0 0 0 6 7 7 4 0 6 6 71 56 55 44 41 37 35 33 31 30 29 28 27 27 27 26 27 28 30 61 78 87 94 100 104 108 112 116 107 97 94 92 87 74 67 64 61 60 60 61 63 68 82 84 90 96 88 78 61 27 20 8 0 0 
0 0 0 6 6 6 0 4 5 75 57 45 40 37 34 30 28 26 24 21 20 18 17 17 17 18 19 21 24 28 57 72 81 89 94 98 101 105 109 111 103 97 92 89 88 80 77 77 78 80 85 86 89 97 91 84 74 58 26 19 7 0 0 0 
0 0 0 6 6 5 0 5 4 54 40 36 30 24 20 17 14 11 5 0 0 0 0 0 0 0 4 13 16 19 23 46 62 73 81 86 90 95 98 100 102 104 107 107 97 94 93 93 94 99 99 95 90 85 78 68 51 25 19 0 0 0 0 0 
0 0 4 5 5 0 0 0 26 20 13 3 0 0 0 0 0 0 0 0 0 0 0 0 0 0 0 0 0 9 15 19 22 47 62 69 75 80 85 87 90 92 94 95 95 94 93 91 89 87 84 80 75 70 58 37 24 18 0 0 0 0 0 0 
0 0 0 0 0 7 0 0 0 0 0 0 0 0 0 0 0 0 0 0 0 0 0 0 0 0 0 0 0 0 0 4 13 17 20 41 53 61 66 69 72 74 76 78 78 77 76 74 73 70 67 63 55 38 28 23 17 0 0 0 0 0 0 0 
0 0 0 0 0 0 0 0 0 0 0 0 0 0 0 0 0 0 0 0 0 0 0 0 0 0 0 0 0 0 0 0 0 0 5 15 19 23 32 38 44 48 52 54 53 51 48 46 41 33 31 29 27 25 21 16 0 0 0 0 0 0 0 0 
0 0 0 0 0 0 0 0 0 0 0 0 0 0 0 0 0 0 0 0 0 0 0 0 0 0 0 0 0 0 0 0 0 0 0 0 7 13 17 19 21 23 24 26 28 28 27 25 24 22 21 19 17 16 7 0 0 0 0 0 0 0 0 0 
0 0 0 0 0 0 0 0 0 0 0 0 0 0 0 0 0 0 0 0 0 0 0 0 0 0 0 0 0 0 0 0 0 0 0 0 0 0 4 7 9 11 13 15 17 18 17 16 12 3 0 0 0 0 0 0 0 0 0 0 0 0 0 0 
0 0 0 0 0 0 0 0 0 0 0 0 0 0 0 0 0 0 0 0 0 0 0 0 0 0 0 0 0 0 0 0 0 0 0 0 0 0 0 0 0 0 0 0 0 0 0 0 0 0 0 0 0 0 0 0 0 0 0 0 0 0 0 0 
0 0 0 0 0 0 0 0 0 0 0 0 0 0 0 0 0 0 0 0 0 0 0 0 0 0 0 0 0 0 0 0 0 0 0 0 0 0 0 0 0 0 0 0 0 0 0 0 0 0 0 0 0 0 0 0 0 0 0 0 0 0 0 0 
0 0 0 0 0 0 0 0 0 0 0 0 0 0 0 0 0 0 0 0 0 0 0 0 0 0 0 0 0 0 0 0 0 0 0 0 0 0 0 0 0 0 0 0 0 0 0 0 0 0 0 0 0 0 0 0 0 0 0 0 0 0 0 0 
0 0 0 0 0 0 0 0 0 0 0 0 0 0 0 0 0 0 0 0 0 0 0 0 0 0 0 0 0 0 0 0 0 0 0 0 0 0 0 0 0 0 0 0 0 0 0 0 0 0 0 0 0 0 0 0 0 0 0 0 0 0 0 0 
0 0 0 0 0 0 0 0 0 0 0 0 0 0 0 0 0 0 0 0 0 0 0 0 0 0 0 0 0 0 0 0 0 0 0 0 0 0 0 0 0 0 0 0 0 0 0 0 0 0 0 0 0 0 0 0 0 0 0 0 0 0 0 0 
0 0 0 0 0 0 0 0 0 0 0 0 0 0 0 0 0 0 0 0 0 0 0 0 0 0 0 0 0 0 0 0 0 0 0 0 0 0 0 0 0 0 0 0 0 0 0 0 0 0 0 0 0 0 0 0 0 0 0 0 0 0 0 0 
0 0 0 0 0 0 0 0 0 0 0 0 0 0 0 0 0 0 0 0 0 0 0 0 0 0 0 0 0 0 0 0 0 0 0 0 0 0 0 0 0 0 0 0 0 0 0 0 0 0 0 0 0 0 0 0 0 0 0 0 0 0 0 0 
0 0 0 0 0 0 0 0 0 0 0 0 0 0 0 0 0 0 0 0 0 0 0 0 0 0 0 0 0 0 0 0 0 0 0 0 0 0 0 0 0 0 0 0 0 0 0 0 0 0 0 0 0 0 0 0 0 0 0 0 0 0 0 0 
0 0 0 0 0 0 0 0 0 0 0 0 0 0 0 0 0 0 0 0 0 0 0 0 0 0 0 0 0 0 0 0 0 0 0 0 0 0 0 0 0 0 0 0 0 0 0 0 0 0 0 0 0 0 0 0 0 0 0 0 0 0 0 0 
0 0 0 0 0 0 0 0 0 0 0 0 0 0 0 0 0 0 0 0 0 0 0 0 0 0 0 0 0 0 0 0 0 0 0 0 0 0 0 0 0 0 0 0 0 0 0 0 0 0 0 0 0 0 0 0 0 0 0 0 0 0 0 0 
